<svg width="25" height="25" viewBox="0 0 25 25" fill="none" xmlns="http://www.w3.org/2000/svg">
<path fill-rule="evenodd" clip-rule="evenodd" d="M12.2371 6.12695C13.3416 6.12695 14.2371 5.23152 14.2371 4.12695C14.2371 3.02238 13.3416 2.12695 12.2371 2.12695C11.1325 2.12695 10.237 3.02238 10.237 4.12695C10.237 5.23152 11.1325 6.12695 12.2371 6.12695ZM12.2371 22.127C13.3416 22.127 14.2371 21.2316 14.2371 20.127C14.2371 19.0224 13.3416 18.127 12.2371 18.127C11.1325 18.127 10.237 19.0224 10.237 20.127C10.237 21.2316 11.1325 22.127 12.2371 22.127ZM20.1652 9.85912C19.2086 10.4115 17.9854 10.0837 17.4331 9.12707C16.8808 8.17048 17.2086 6.9473 18.1652 6.39502C19.1218 5.84273 20.3449 6.17048 20.8972 7.12707C21.4495 8.08365 21.1218 9.30683 20.1652 9.85912ZM3.57688 17.1271C4.12916 18.0837 5.35234 18.4115 6.30893 17.8592C7.26551 17.3069 7.59326 16.0837 7.04098 15.1271C6.48869 14.1705 5.26551 13.8428 4.30893 14.3951C3.35234 14.9474 3.02459 16.1705 3.57688 17.1271ZM18.1652 17.8589C17.2086 17.3066 16.8808 16.0835 17.4331 15.1269C17.9854 14.1703 19.2086 13.8425 20.1652 14.3948C21.1218 14.9471 21.4495 16.1703 20.8972 17.1269C20.3449 18.0835 19.1218 18.4112 18.1652 17.8589ZM3.57688 7.12707C3.02459 8.08365 3.35234 9.30683 4.30893 9.85912C5.26551 10.4115 6.48869 10.0837 7.04098 9.12707C7.59326 8.17048 7.26551 6.9473 6.30893 6.39502C5.35234 5.84273 4.12916 6.17048 3.57688 7.12707Z" fill="#28303F"/>
</svg>
